<?xml version="1.0" standalone="no"?>
<!DOCTYPE svg PUBLIC "-//W3C//DTD SVG 1.1//EN" "http://www.w3.org/Graphics/SVG/1.1/DTD/svg11.dtd" >
<svg xmlns="http://www.w3.org/2000/svg" xmlns:xlink="http://www.w3.org/1999/xlink" version="1.1">
<metadata>
Created by FontForge 20190801 at Wed Aug 27 18:37:24 1997
 By Jimmy Wärting
a_Alterna *Arsenal Company (c) 1996*  FAX: (095)924-3775; e-Mail: arsenal@itco.msk.su; Phone: (095)924-5811 (Design and Featuring W.Chufarofsky)
</metadata>
<defs>
<font id="AAlterna" horiz-adv-x="494" >
  <font-face 
    font-family="a_Alterna"
    font-weight="600"
    font-stretch="normal"
    units-per-em="1000"
    panose-1="2 11 6 6 2 2 7 5 2 4"
    ascent="800"
    descent="-200"
    x-height="612"
    cap-height="702"
    bbox="-78 -220 1056 854"
    underline-thickness="81"
    underline-position="-250"
    unicode-range="U+0020-2122"
  />
<missing-glyph horiz-adv-x="500" 
d="M63 0v854h375v-854h-375zM125 63h250v729h-250v-729z" />
    <glyph glyph-name=".notdef" horiz-adv-x="500" 
d="M63 0v854h375v-854h-375zM125 63h250v729h-250v-729z" />
    <glyph glyph-name=".null" horiz-adv-x="0" 
 />
    <glyph glyph-name="nonmarkingreturn" horiz-adv-x="222" 
 />
    <glyph glyph-name="space" unicode=" " horiz-adv-x="222" 
 />
    <glyph glyph-name="exclam" unicode="!" horiz-adv-x="267" 
d="M217 702l-29 -515h-108l-30 515h167zM204 0h-142v158h142v-158z" />
    <glyph glyph-name="quotedbl" unicode="&#x22;" horiz-adv-x="336" 
d="M294 441h-82v280h82v-280zM124 441h-82v280h82v-280z" />
    <glyph glyph-name="numbersign" unicode="#" 
d="M494 480l-24 -81h-94l-28 -98h97l-23 -81h-98l-50 -169h-74l50 169h-82l-50 -169h-74l49 169h-97l26 81h96l28 98h-101l25 81h99l50 168h74l-48 -168h81l50 168h73l-49 -168h94zM303 399h-84l-29 -99h84z" />
    <glyph glyph-name="dollar" unicode="$" 
d="M450 193q0 -94 -43.5 -140t-137.5 -55v-64h-48v65q-93 10 -133.5 55.5t-40.5 138.5v82h144v-76q0 -74 61 -74q56 0 56 51q0 42 -44 85q-21 20 -80 62q-67 47 -102 96.5t-35 98.5q0 152 174 170v66h48v-66q93 -10 134 -51.5t41 -134.5v-42h-145q0 54 -4 67q-10 33 -51 33
q-55 0 -55 -34q0 -20 86 -91q54 -43 109 -85q25 -23 39 -43q27 -40 27 -114z" />
    <glyph glyph-name="percent" unicode="%" 
d="M208 468q0 -95 -93 -95q-90 0 -90 95v135q0 93 90 93q93 0 93 -93v-135zM490 687l-428 -687h-59l429 687h58zM470 84q0 -93 -92 -93q-90 0 -90 93v135q0 94 90 94q92 0 92 -94v-135zM156 462v148q0 30 -41 30q-37 0 -37 -30v-148q0 -31 39 -31t39 31zM418 77v150
q0 29 -40 29q-39 0 -39 -29v-150q0 -30 40 -30q39 0 39 30z" />
    <glyph glyph-name="ampersand" unicode="&#x26;" horiz-adv-x="496" 
d="M505 317q-111 -84 -111 -130q0 -10 6 -21l87 -166h-149l-34 61q-31 -38 -58 -53q-31 -17 -76 -17q-164 0 -164 192q0 156 117 232q-48 85 -48 150q0 74 51 112q46 33 123 33q68 0 111 -35q48 -37 48 -103q0 -58 -37 -110q-34 -47 -88 -77l63 -120q37 102 72 122zM318 574
q0 40 -62 40q-21 0 -39 -9q-22 -11 -22 -31q0 -26 44 -101q79 62 79 101zM262 159l-75 143q-59 -36 -59 -93q0 -43 16 -72q20 -37 59 -37q55 0 59 59z" />
    <glyph glyph-name="quotesingle" unicode="'" horiz-adv-x="166" 
d="M124 441h-82v280h82v-280z" />
    <glyph glyph-name="parenleft" unicode="(" horiz-adv-x="300" 
d="M272 -59q-125 8 -180 95q-45 72 -45 207v164q0 290 225 302v-121q-54 -11 -71 -44q-11 -23 -11 -85v-267q0 -62 11 -85q16 -34 71 -43v-123z" />
    <glyph glyph-name="parenright" unicode=")" horiz-adv-x="300" 
d="M253 243q0 -135 -45 -207q-55 -87 -180 -95v123q55 9 72 42q11 23 11 86v267q0 63 -12 85q-16 33 -71 44v121q126 -7 180 -95q45 -72 45 -207v-164z" />
    <glyph glyph-name="asterisk" unicode="*" horiz-adv-x="324" 
d="M314 564l-91 -26l55 -73l-61 -45l-57 74l-54 -74l-64 42l60 76l-92 27l25 71l90 -29l-2 93h77v-93l90 28z" />
    <glyph glyph-name="plus" unicode="+" horiz-adv-x="720" 
d="M627 267h-222v-223h-90v223h-222v90h222v222h90v-222h222v-90z" />
    <glyph glyph-name="comma" unicode="," horiz-adv-x="234" 
d="M188 -4l-99 -60l-24 21l45 43h-64v158h142v-162z" />
    <glyph glyph-name="hyphen" unicode="-" horiz-adv-x="256" 
d="M248 248h-240v130h240v-130z" />
    <glyph glyph-name="hyphen" unicode="&#x2010;" horiz-adv-x="256" 
d="M248 248h-240v130h240v-130z" />
    <glyph glyph-name="period" unicode="." horiz-adv-x="234" 
d="M188 0h-142v158h142v-158z" />
    <glyph glyph-name="slash" unicode="/" horiz-adv-x="315" 
d="M352 710l-353 -805h-77l353 805h77z" />
    <glyph glyph-name="zero" unicode="0" horiz-adv-x="492" 
d="M450 195q0 -204 -203 -204q-205 0 -205 204v296q0 205 205 205q203 0 203 -205v-296zM300 187v315q0 34 -8 47q-12 17 -45 17t-43.5 -15.5t-10.5 -48.5v-315q0 -36 9 -49q11 -17 45 -17q33 0 44 19q9 13 9 47z" />
    <glyph glyph-name="one" unicode="1" 
d="M350 0h-148v507q-58 -22 -109 -22v113q111 21 147 89h110v-687z" />
    <glyph glyph-name="two" unicode="2" 
d="M451 0h-411q-1 6 -1 28q0 85 48 167q34 56 110 137q58 62 69 77q35 47 35 95q0 34 -10 46q-11 16 -45 16q-33 0 -44 -18q-8 -13 -8 -46v-77h-150v66q0 205 202 205q204 0 204 -197q0 -120 -74 -198q-15 -17 -46 -48q-41 -39 -56 -57q-32 -36 -44 -66h221v-130z" />
    <glyph glyph-name="three" unicode="3" 
d="M448 180q0 -189 -204 -189q-105 0 -154.5 45t-49.5 149v84h151v-82q0 -34 9 -47q11 -18 44 -18q32 0 43 17q8 13 8 48v46q0 55 -26 71.5t-118 16.5v117q86 0 114 10t28 57q0 61 -50 61q-37 0 -46 -24q-4 -11 -4 -57h-142q-2 10 -2 37q0 97 51 138q46 36 146 36
q119 0 159 -46q37 -42 37 -163q0 -88 -32 -105q38 -16 38 -122v-80z" />
    <glyph glyph-name="four" unicode="4" 
d="M466 114h-45v-114h-145v114h-255q-3 30 -3 64q0 311 167 509h236v-439h45v-134zM276 248v339q-60 -87 -83.5 -161t-23.5 -178h107z" />
    <glyph glyph-name="five" unicode="5" 
d="M450 195q0 -204 -204 -204t-204 204v68h153v-76q0 -35 8 -48q11 -18 43 -18q33 0 44 17q9 14 9 49v132q0 34 -8 47q-12 17 -45 17q-61 0 -63 -51h-122l8 355h350v-130h-224l-3 -80q53 25 94 25q80 0 122 -47.5t42 -127.5v-132z" />
    <glyph glyph-name="six" unicode="6" 
d="M452 195q0 -204 -203 -204q-202 0 -202 204v296q0 205 202 205q203 0 203 -192v-26h-149q0 50 -4 61q-10 27 -50 27q-32 0 -43 -17q-9 -13 -9 -47v-123q28 38 46 52q28 22 65 22q144 0 144 -180v-78zM303 187v77q0 34 -10 48.5t-44 14.5q-32 0 -42 -14.5t-10 -48.5v-77
q0 -36 8 -49q11 -17 44 -17q34 0 45 18q9 14 9 48z" />
    <glyph glyph-name="seven" unicode="7" 
d="M451 660q0 -54 -21.5 -124.5t-60.5 -148.5q-48 -97 -51 -104q-28 -60 -40 -108q-24 -99 -26 -175h-172v10q0 158 133 407q25 47 36 69q21 46 26 71h-227v130h403v-27z" />
    <glyph glyph-name="eight" unicode="8" 
d="M451 195q0 -204 -205 -204q-203 0 -203 204v99q0 72 34 89q-34 19 -34 125q0 188 203 188q96 0 149 -45q56 -49 56 -143v-33q0 -73 -37 -92q37 -17 37 -89v-99zM305 505q0 34 -12.5 48.5t-45.5 14.5q-58 0 -58 -57q0 -40 9 -55q12 -19 49 -19q35 0 48 18q10 14 10 50z
M305 185v78q0 36 -10 49q-12 17 -48 17t-48 -17q-10 -13 -10 -49v-78q0 -36 10 -49q12 -17 48 -17t48 17q10 13 10 49z" />
    <glyph glyph-name="nine" unicode="9" 
d="M448 195q0 -204 -204 -204t-204 198v20h153q0 -50 4 -61q9 -27 47 -27q33 0 44 17q9 14 9 49v122q-55 -74 -106 -74q-151 0 -151 178v78q0 205 204 205t204 -205v-296zM297 423v79q0 33 -9 46q-11 18 -44 18q-32 0 -43 -17q-8 -12 -8 -47v-79q0 -35 8 -47q10 -17 43 -17
t45 17q8 13 8 47z" />
    <glyph glyph-name="colon" unicode=":" horiz-adv-x="234" 
d="M188 451h-142v161h142v-161zM188 0h-142v158h142v-158z" />
    <glyph glyph-name="semicolon" unicode=";" horiz-adv-x="234" 
d="M188 451h-142v161h142v-161zM188 -4l-99 -60l-24 21l45 43h-64v158h142v-162z" />
    <glyph glyph-name="less" unicode="&#x3c;" horiz-adv-x="720" 
d="M643 21l-580 232v108l580 231v-107l-451 -179l451 -179v-106z" />
    <glyph glyph-name="equal" unicode="=" horiz-adv-x="720" 
d="M600 369h-480v102h480v-102zM600 148h-480v102h480v-102z" />
    <glyph glyph-name="greater" unicode="&#x3e;" horiz-adv-x="720" 
d="M657 253l-580 -232v105l453 180l-453 179v107l580 -231v-108z" />
    <glyph glyph-name="question" unicode="?" horiz-adv-x="411" 
d="M394 530q0 -59 -40 -126q-36 -54 -73 -109q-40 -61 -40 -106h-119v22q0 49 16 94q13 35 47 90q15 25 47 76q18 28 18 55q0 33 -10 46q-11 17 -44 17q-34 0 -45 -17q-8 -12 -8 -46v-62h-136v53q0 107 40.5 150t146.5 43q200 0 200 -180zM253 0h-142v158h142v-158z" />
    <glyph glyph-name="at" unicode="@" horiz-adv-x="1024" 
d="M980 382q0 -128 -79 -225q-85 -104 -210 -104q-105 0 -107 83q-54 -82 -149 -82q-161 0 -161 170q0 112 64 193q69 89 177 89q81 0 118 -66l27 50h88l-73 -300q-3 -12 -3 -20q0 -35 47 -35q40 0 81 38q87 80 87 211q0 129 -105 205q-93 69 -227 69q-142 0 -241 -67
q-177 -119 -177 -330q0 -161 112 -252q104 -85 268 -85q162 0 302 96l41 -59q-152 -115 -341 -115q-195 0 -319 96q-155 120 -155 318q0 142 75.5 259t205.5 175q104 46 232 46q175 0 293 -90q129 -98 129 -268zM608 350q-12 83 -87 83q-67 0 -107 -75q-34 -63 -34 -136
q0 -94 79 -94q45 0 80 36q32 32 43 78z" />
    <glyph glyph-name="A" unicode="A" horiz-adv-x="498" 
d="M459 0h-150v126h-120v-126h-150v137q0 385 141 565h137q142 -188 142 -565v-137zM309 252q0 176 -60 342q-60 -166 -60 -342h120z" />
    <glyph glyph-name="B" unicode="B" horiz-adv-x="527" 
d="M482 204q0 -116 -43.5 -160t-159.5 -44h-222v702h215q112 0 153 -30q48 -37 48 -144q0 -89 -72 -138q49 -34 67 -81q14 -38 14 -105zM321 514q0 60 -56 60h-61v-134h34q83 0 83 74zM330 216q0 107 -76 107h-50v-191h39q51 0 69 16.5t18 67.5z" />
    <glyph glyph-name="C" unicode="C" horiz-adv-x="511" 
d="M472 227q0 -126 -43 -178q-47 -58 -170 -58q-122 0 -170 59q-42 52 -42 177v248q0 126 42 177q47 58 170 58q142 0 184 -77q29 -53 29 -208h-154v87q0 36 -10 50q-13 16 -49 16q-34 0 -47 -13.5t-13 -47.5v-332q0 -34 13 -48t47 -14q38 0 50 17q9 14 9 51v120h154v-84z
" />
    <glyph glyph-name="D" unicode="D" horiz-adv-x="525" 
d="M478 189q0 -103 -46.5 -146t-149.5 -43h-227v702h227q103 0 149.5 -43.5t46.5 -145.5v-324zM325 199v303q0 39 -16.5 52.5t-56.5 13.5h-46v-435h46q40 0 56.5 13.5t16.5 52.5z" />
    <glyph glyph-name="E" unicode="E" horiz-adv-x="426" 
d="M390 0h-333v702h324v-132h-177v-123h186v-126h-186v-189h186v-132z" />
    <glyph glyph-name="F" unicode="F" horiz-adv-x="384" 
d="M363 568h-159v-568h-147v702h306v-134z" />
    <glyph glyph-name="G" unicode="G" horiz-adv-x="523" 
d="M472 0h-49l-32 39q-68 -48 -144 -48q-115 0 -161 63q-39 54 -39 173v248q0 126 42 177q47 58 170 58q116 0 164.5 -52t48.5 -169v-28h-154v51q0 36 -10 50q-13 16 -49 16q-34 0 -47 -13.5t-13 -47.5v-309q0 -45 11 -62q14 -22 56 -22q44 0 58 24q11 18 11 66v93h-50v115
h187v-422z" />
    <glyph glyph-name="H" unicode="H" horiz-adv-x="531" 
d="M474 0h-150v321h-117v-321h-150v702h150v-255h117v255h150v-702z" />
    <glyph glyph-name="I" unicode="I" horiz-adv-x="270" 
d="M210 0h-150v702h150v-702z" />
    <glyph glyph-name="J" unicode="J" horiz-adv-x="480" 
d="M429 227q0 -125 -42 -177q-48 -59 -170 -59q-123 0 -170 58q-43 52 -43 178v96h153v-138q0 -34 13 -48t47 -14q37 0 49 18q10 14 10 50v511h153v-475z" />
    <glyph glyph-name="K" unicode="K" horiz-adv-x="516" 
d="M475 682q0 -158 -77 -256q76 -85 76 -379v-47h-151q0 21 1 62t1 62q0 145 -59 216q-20 -18 -64 -49v-291h-147v702h147v-298q112 101 121 298h151q0 -3 1 -10v-10z" />
    <glyph glyph-name="L" unicode="L" horiz-adv-x="394" 
d="M394 0h-339v702h151v-569h188v-133z" />
    <glyph glyph-name="M" unicode="M" horiz-adv-x="798" 
d="M745 0h-152v561q-70 -73 -93 -125q-26 -58 -26 -153v-283h-149v283q0 96 -26 153q-23 52 -93 125v-561h-151v702h216q70 -68 128 -225q58 159 130 225h216v-702z" />
    <glyph glyph-name="N" unicode="N" horiz-adv-x="530" 
d="M474 0h-149v137q0 176 -119 376v-513h-151v702h140q49 -65 130 -251v251h149v-702z" />
    <glyph glyph-name="O" unicode="O" horiz-adv-x="519" 
d="M472 227q0 -126 -43 -178q-47 -58 -170 -58q-122 0 -170 59q-42 52 -42 177v248q0 125 42 178q48 58 170 58q123 0 170 -58q43 -52 43 -178v-248zM318 191v321q0 36 -10 50q-13 17 -49 17q-34 0 -47 -14t-13 -48v-332q0 -34 13 -48t47 -14q38 0 50 17q9 14 9 51z" />
    <glyph glyph-name="P" unicode="P" horiz-adv-x="516" 
d="M483 449q0 -259 -200 -259q-40 0 -79 6v-196h-147v702h196q128 0 181 -64q49 -58 49 -189zM333 447q0 62 -14 88q-20 35 -76 35h-39v-249q30 -5 60 -5q47 0 61 46q8 24 8 85z" />
    <glyph glyph-name="Q" unicode="Q" horiz-adv-x="519" 
d="M496 28l-61 -85l-110 52q-34 -4 -66 -4q-123 0 -170 58q-42 52 -42 178v248q0 126 42 178q48 57 170 57q123 0 170 -57q43 -52 43 -178v-248q0 -141 -36 -173zM318 191v321q0 36 -10 50q-13 16 -49 16q-34 0 -47 -13.5t-13 -47.5v-332q0 -34 13 -48t47 -14q38 0 50 17
q9 14 9 51z" />
    <glyph glyph-name="R" unicode="R" horiz-adv-x="533" 
d="M510 0h-158q-7 152 -82 316q-30 0 -60 5v-321h-150v702h202q223 0 223 -199q0 -101 -81 -157q84 -147 106 -346zM335 510q0 68 -79 68h-52v-134q31 -9 58 -9q40 0 56.5 17.5t16.5 57.5z" />
    <glyph glyph-name="S" unicode="S" horiz-adv-x="509" 
d="M467 195q0 -204 -213 -204q-110 0 -160 47q-53 48 -53 157v84h154v-78q0 -78 61 -78q60 0 60 53q0 19 -6 35q-14 34 -86 90q-94 73 -121 102q-61 65 -61 133q0 176 212 176q110 0 157 -41q50 -44 50 -152v-46h-136q0 58 -7 74q-13 31 -62 31q-21 0 -39 -9
q-22 -10 -22 -29q0 -16 47 -56q77 -57 155 -114q70 -62 70 -175z" />
    <glyph glyph-name="T" unicode="T" horiz-adv-x="401" 
d="M381 574h-106v-574h-151v574h-105v128h362v-128z" />
    <glyph glyph-name="U" unicode="U" horiz-adv-x="525" 
d="M473 227q0 -125 -42 -177q-48 -59 -170 -59t-169 59q-41 51 -41 177v475h151v-517q0 -34 12.5 -48t46.5 -14q39 0 52 20q10 15 10 54v505h150v-475z" />
    <glyph glyph-name="V" unicode="V" horiz-adv-x="480" 
d="M450 482q0 -164 -19 -254q-27 -130 -107 -228h-169q-79 100 -106 228q-19 89 -19 254v220h151v-203q0 -156 5 -203q10 -88 54 -195q44 103 55 195q5 47 5 203v203h150v-220z" />
    <glyph glyph-name="W" unicode="W" horiz-adv-x="749" 
d="M719 482q0 -163 -19 -254q-28 -130 -107 -228h-139q-41 72 -78 191q-24 -66 -36 -97q-22 -54 -45 -94h-140q-80 100 -106 229q-19 89 -19 253v220h148v-203q0 -157 5 -202q11 -91 56 -194q46 106 57 194q5 44 5 202v203h146v-203q0 -148 6 -202q12 -94 56 -194
q46 106 56 194q6 48 6 202v203h148v-220z" />
    <glyph glyph-name="X" unicode="X" horiz-adv-x="510" 
d="M468 0h-150q0 124 -10 186q-12 79 -52 180q41 76 53 164q9 58 9 172h150v-21q0 -154 -67 -291q67 -152 67 -370v-20zM254 366q-40 -101 -52 -180q-10 -62 -10 -186h-150v20q0 218 67 370q-21 44 -44 115.5t-23 196.5h150q0 -114 9 -172q12 -88 53 -164z" />
    <glyph glyph-name="Y" unicode="Y" horiz-adv-x="431" 
d="M425 668q0 -270 -134 -473v-195h-151v195q-134 209 -134 507h151q6 -281 61 -387q54 118 58 387h149v-34z" />
    <glyph glyph-name="Z" unicode="Z" horiz-adv-x="423" 
d="M398 561l-222 -428h213v-133h-383v125l232 443h-208v134h368v-141z" />
    <glyph glyph-name="bracketleft" unicode="[" horiz-adv-x="300" 
d="M309 -60h-254v762h254v-80h-112v-602h112v-80z" />
    <glyph glyph-name="backslash" unicode="\" horiz-adv-x="315" 
d="M392 -95h-77l-351 805h77z" />
    <glyph glyph-name="bracketright" unicode="]" horiz-adv-x="300" 
d="M244 -60h-253v80h112v602h-112v80h253v-762z" />
    <glyph glyph-name="asciicircum" unicode="^" horiz-adv-x="720" 
d="M627 450h-103l-163 185l-164 -185h-104l211 280h111z" />
    <glyph glyph-name="underscore" unicode="_" horiz-adv-x="512" 
d="M518 -193h-524v103h524v-103z" />
    <glyph glyph-name="grave" unicode="`" horiz-adv-x="569" 
d="M324 658h-79l-72 107h105z" />
    <glyph glyph-name="a" unicode="a" horiz-adv-x="468" 
d="M420 0h-130v59q-71 -69 -122 -69q-129 0 -129 143v91q0 49 13 80q23 53 117 90q37 14 112 41v16q0 32 -10.5 45t-42.5 13q-38 0 -48 -24q-5 -12 -5 -58h-122v40q0 85 49 121q43 32 131 32q97 0 141 -38q46 -41 46 -137v-445zM281 166v166q-48 -24 -67 -39
q-33 -28 -38 -65q-1 -11 -1 -25v-37q0 -34 8 -47q12 -17 45 -17t44 16q9 12 9 48z" />
    <glyph glyph-name="b" unicode="b" horiz-adv-x="481" 
d="M440 179q0 -87 -20 -128q-28 -60 -105 -60q-41 0 -73 18q-23 13 -60 48v-57h-129v702h139v-145q31 33 50 45q28 18 64 18q91 0 118 -63q16 -37 16 -143v-235zM298 166v279q0 33 -9 46q-11 18 -44 18t-43 -14.5t-10 -49.5v-279q0 -35 9 -48q11 -16 44 -16t45 17q8 13 8 47
z" />
    <glyph glyph-name="c" unicode="c" horiz-adv-x="468" 
d="M431 187q0 -110 -42.5 -153t-151.5 -43q-110 0 -152.5 43t-42.5 153v237q0 109 43 152.5t152 43.5q133 0 170 -67q24 -44 24 -190h-141v82q0 33 -9 46q-11 18 -44 18t-45 -17q-9 -13 -9 -47v-279q0 -34 9 -47q11 -17 45 -17q33 0 45 17q8 13 8 47v82h141v-61z" />
    <glyph glyph-name="d" unicode="d" horiz-adv-x="481" 
d="M429 0h-129v56q-68 -65 -132 -65q-77 0 -106 59q-20 42 -20 129v235q0 110 15 144q27 62 120 62q36 0 64 -18q18 -12 49 -45v145h139v-702zM290 166v279q0 33 -9 46q-11 18 -44 18t-45 -17q-9 -13 -9 -47v-279q0 -34 9 -47q11 -17 45 -17q33 0 45 17q8 13 8 47z" />
    <glyph glyph-name="e" unicode="e" horiz-adv-x="473" 
d="M431 187q0 -110 -42.5 -153t-151.5 -43q-110 0 -152.5 43t-42.5 153v237q0 109 43 152.5t152 43.5t151.5 -43t42.5 -153v-138h-250v-120q0 -34 10.5 -49t45.5 -15q33 0 45 17q10 13 10 47v58h139v-37zM292 394v47q0 35 -9 49q-12 19 -46 19q-35 0 -47 -19q-9 -13 -9 -49
v-47h111z" />
    <glyph glyph-name="f" unicode="f" horiz-adv-x="280" 
d="M246 508h-40v-508h-138v508h-38v104h38v16q0 48 32 67q25 15 77 15q21 0 69 -8v-63q-23 0 -29 -3q-11 -5 -11 -24h40v-104z" />
    <glyph glyph-name="g" unicode="g" horiz-adv-x="473" 
d="M423 89q0 -102 -55 -147q-51 -41 -155 -41q-111 0 -199 38l55 91q58 -30 112 -30q74 0 93 30q14 20 14 101q-70 -65 -127 -65q-72 0 -99 49q-20 36 -20 116v201q0 90 20 130q30 58 110 58q37 0 69 -20q20 -13 54 -48v60h128v-523zM288 235v210q0 33 -9 47q-12 17 -45 17
t-44 -18q-9 -13 -9 -46v-210q0 -35 9 -48q11 -17 44 -17t45 18q9 13 9 47z" />
    <glyph glyph-name="h" unicode="h" horiz-adv-x="485" 
d="M438 0h-140v445q0 33 -9 46q-11 18 -44 18t-43 -14.5t-10 -49.5v-445h-139v702h137v-137q62 53 116 53q82 0 111 -56q21 -39 21 -130v-432z" />
    <glyph glyph-name="i" unicode="i" horiz-adv-x="251" 
d="M192 637h-139v65h139v-65zM192 0h-139v612h139v-612z" />
    <glyph glyph-name="j" unicode="j" horiz-adv-x="255" 
d="M199 637h-138v65h138v-65zM199 59q0 -84 -17 -112q-23 -37 -101 -37q-27 0 -62 8v82q42 0 42 33v579h138v-553z" />
    <glyph glyph-name="k" unicode="k" horiz-adv-x="481" 
d="M438 0h-140q0 218 -28 302q-25 -20 -78 -56v-246h-139v702h139v-343q62 46 86 112q20 54 20 141h140v-36q0 -104 -56 -188q56 -86 56 -267v-121z" />
    <glyph glyph-name="l" unicode="l" horiz-adv-x="251" 
d="M195 0h-140v702h140v-702z" />
    <glyph glyph-name="m" unicode="m" horiz-adv-x="729" 
d="M684 0h-140v445q0 33 -9 47q-12 17 -45 17q-32 0 -43 -17q-9 -12 -9 -47v-445h-140v445q0 33 -9 46q-11 18 -44 18t-43 -14.5t-10 -49.5v-445h-139v612h129v-57q39 35 59 47q32 18 72 18q58 0 113 -67q60 67 125 67q82 0 112 -56q21 -40 21 -132v-432z" />
    <glyph glyph-name="n" unicode="n" horiz-adv-x="485" 
d="M438 0h-140v445q0 33 -9 46q-11 18 -44 18t-43 -14.5t-10 -49.5v-445h-139v612h129v-59q70 67 124 67q82 0 111 -57q21 -40 21 -131v-432z" />
    <glyph glyph-name="o" unicode="o" horiz-adv-x="471" 
d="M430 187q0 -109 -42.5 -152.5t-151.5 -43.5q-110 0 -152.5 43t-42.5 153v237q0 109 43 152.5t152 43.5t151.5 -43.5t42.5 -152.5v-237zM289 172v267q0 33 -9 46q-12 18 -44 18q-33 0 -45 -17q-9 -13 -9 -47v-267q0 -34 9 -47q11 -17 45 -17q33 0 45 17q8 13 8 47z" />
    <glyph glyph-name="p" unicode="p" horiz-adv-x="481" 
d="M440 198q0 -107 -16 -144q-27 -63 -118 -63q-37 0 -65 18q-19 13 -49 47v-146h-139v702h129v-59q38 36 59 49q32 18 74 18q77 0 105 -60q20 -41 20 -128v-234zM298 166v279q0 33 -9 46q-11 18 -44 18t-43 -14.5t-10 -49.5v-279q0 -35 9 -48q11 -16 44 -16t45 17
q8 13 8 47z" />
    <glyph glyph-name="q" unicode="q" horiz-adv-x="481" 
d="M429 -90h-139v143q-30 -32 -50 -44q-28 -18 -63 -18q-92 0 -120 62q-16 37 -16 144v235q0 87 20 129q29 59 107 59q39 0 73 -19q23 -13 59 -47v58h129v-702zM290 166v279q0 33 -9 46q-11 18 -44 18t-45 -17q-9 -13 -9 -47v-279q0 -34 9 -47q11 -17 45 -17q33 0 45 17
q8 13 8 47z" />
    <glyph glyph-name="r" unicode="r" horiz-adv-x="452" 
d="M438 319h-140v126q0 33 -9 46q-11 18 -44 18t-43 -14.5t-10 -49.5v-445h-139v612h129v-60q66 66 124 66q82 0 111 -56q21 -39 21 -130v-113z" />
    <glyph glyph-name="s" unicode="s" horiz-adv-x="457" 
d="M427 168q0 -96 -49 -138q-45 -39 -143 -39q-110 0 -153 37q-47 41 -47 149v75h139v-86q0 -34 8 -47q12 -17 45 -17q56 0 56 56q0 39 -24 66q-18 18 -83 61q-139 91 -139 177q0 158 190 158q97 0 140 -31q52 -37 52 -130v-40h-136v56q0 16 -21 26q-17 8 -35 8
q-52 0 -52 -39q0 -10 13.5 -23t73.5 -52q14 -9 41 -28q64 -42 91 -82q33 -48 33 -117z" />
    <glyph glyph-name="t" unicode="t" horiz-adv-x="284" 
d="M246 0q-34 -12 -74 -12q-69 0 -91 35q-15 25 -15 100v376h-43v113h43v73l138 22v-95h42v-113h-42v-351q0 -38 42 -38v-110z" />
    <glyph glyph-name="u" unicode="u" horiz-adv-x="485" 
d="M431 0h-128v55q-67 -62 -125 -62q-82 0 -111 56q-20 39 -20 130v433h141v-446q0 -35 8 -47q11 -17 43 -17q33 0 45 17q8 13 8 47v446h139v-612z" />
    <glyph glyph-name="v" unicode="v" horiz-adv-x="473" 
d="M429 363q0 -239 -109 -363h-167q-109 124 -109 363v249h139v-228q0 -154 54 -307q53 147 53 307v228h139v-249z" />
    <glyph glyph-name="w" unicode="w" horiz-adv-x="719" 
d="M674 363q0 -240 -108 -363h-147q-17 31 -60 144q-19 -48 -59 -144h-147q-109 124 -109 363v249h139v-228q0 -154 54 -307q53 147 53 307v228h139v-228q0 -155 52 -307q55 147 55 307v228h138v-249z" />
    <glyph glyph-name="x" unicode="x" horiz-adv-x="461" 
d="M423 0h-140q0 157 -51 330q-55 -174 -55 -330h-140q0 220 62 333q-62 138 -62 279h140q0 -143 55 -260q51 123 51 260h140q0 -135 -61 -278q61 -118 61 -334z" />
    <glyph glyph-name="y" unicode="y" horiz-adv-x="473" 
d="M429 391q0 -144 -32 -254q-35 -120 -115 -227h-238v90h106q-106 160 -106 391v221h139q0 -251 3 -294q8 -136 51 -282q42 145 50 282q3 43 3 294h139v-221z" />
    <glyph glyph-name="z" unicode="z" horiz-adv-x="396" 
d="M368 484l-199 -356h189v-128h-342v115l207 368h-193v129h338v-128z" />
    <glyph glyph-name="braceleft" unicode="{" horiz-adv-x="428" 
d="M419 -128h-29q-134 0 -176 38q-35 32 -35 133v126q0 76 -42 104q-33 23 -113 23v102q79 0 113 24q42 29 42 104v125q0 97 35 131q43 41 176 41h29v-105q-70 0 -95 -15q-34 -21 -34 -86v-121q0 -98 -37 -127q-13 -11 -34 -22q21 -12 34 -21q37 -30 37 -129v-120
q0 -65 34 -85q25 -15 95 -15v-105z" />
    <glyph glyph-name="bar" unicode="|" horiz-adv-x="569" 
d="M330 -180h-90v901h90v-901z" />
    <glyph glyph-name="braceright" unicode="}" horiz-adv-x="428" 
d="M404 296q-80 0 -113 -23q-42 -28 -42 -104v-126q0 -101 -35 -133q-42 -38 -176 -38h-29v105q70 0 95 15q34 20 34 85v120q0 99 38 129q12 9 33 21q-21 11 -33 22q-38 29 -38 127v121q0 65 -34 86q-25 15 -95 15v105h29q133 0 176 -41q35 -34 35 -131v-125q0 -75 42 -104
q34 -24 113 -24v-102z" />
    <glyph glyph-name="asciitilde" unicode="~" horiz-adv-x="853" 
d="M765 291q-101 -69 -189 -69q-49 0 -145 33t-149 33q-81 0 -193 -79v111q105 71 193 71q48 0 117 -19l114 -36q40 -12 65 -12q80 0 187 78v-111z" />
    <glyph glyph-name="currency" unicode="&#xa4;" horiz-adv-x="720" 
d="M638 96l-52 -52l-102 101q-53 -38 -122 -38q-71 0 -124 38l-102 -101l-52 52l101 103q-37 53 -37 120q0 69 37 121l-101 103l52 53l102 -101q53 38 122 38q71 0 124 -38l102 101l52 -53l-102 -103q38 -51 38 -121q0 -67 -38 -120zM500 319q0 56 -41 97t-97 41t-97.5 -41
t-41.5 -97q0 -57 41 -97t98 -40q56 0 97 40.5t41 96.5z" />
    <glyph glyph-name="brokenbar" unicode="&#xa6;" horiz-adv-x="569" 
d="M330 338h-90v380h90v-380zM330 -176h-90v381h90v-381z" />
    <glyph glyph-name="section" unicode="&#xa7;" horiz-adv-x="487" 
d="M430 311q0 -84 -48 -112q45 -29 45 -111q0 -158 -187 -158q-99 0 -140.5 40t-41.5 138v40h96q0 -69 10 -89q17 -33 78 -33q91 0 91 54q0 18 -20 35q-29 23 -83 45q-84 35 -87 37q-49 24 -69 55.5t-20 89.5q0 78 48 101q-44 29 -44 104q0 89 50 128q44 35 136 35
q141 0 174 -81q9 -23 9 -138h-94q0 72 -9 91q-17 32 -80 32q-90 0 -90 -56q0 -16 21 -33q31 -25 114 -58q78 -31 101 -52q40 -35 40 -104zM340 279q0 60 -96 98q-20 7 -67 25q-35 -19 -35 -50q0 -33 69 -71q27 -14 99 -43q30 17 30 41z" />
    <glyph glyph-name="copyright" unicode="&#xa9;" horiz-adv-x="853" 
d="M798 366q0 -155 -107 -260q-113 -111 -265 -111q-151 0 -260.5 110t-109.5 261q0 155 107.5 264.5t262.5 109.5q156 0 264 -109t108 -265zM732 368q0 63 -20 119q-32 87 -111.5 139t-173.5 52q-132 0 -218.5 -89t-86.5 -221t87 -221t218 -89q93 0 173.5 52.5t111.5 138.5
q20 55 20 119zM612 298q-4 -73 -59 -115q-50 -39 -126 -39q-97 0 -150 63q-51 59 -51 157q0 99 51 160q54 66 151 66q71 0 120 -35q54 -39 58 -107h-94q-8 74 -86 74q-54 0 -79 -53q-19 -40 -19 -101q0 -151 102 -151q76 0 85 81h97z" />
    <glyph glyph-name="guillemotleft" unicode="&#xab;" horiz-adv-x="457" 
d="M427 64h-112l-70 239l70 245h112l-70 -245zM224 64h-113l-70 239l70 245h113l-70 -245z" />
    <glyph glyph-name="logicalnot" unicode="&#xac;" horiz-adv-x="720" 
d="M604 182h-87v153h-367v98h454v-251z" />
    <glyph glyph-name="registered" unicode="&#xae;" horiz-adv-x="853" 
d="M798 366q0 -156 -109 -262q-112 -109 -263 -109q-152 0 -261 109.5t-109 261.5q0 155 107.5 264.5t262.5 109.5q156 0 264 -108.5t108 -265.5zM732 362q0 66 -19 122q-31 87 -111.5 140.5t-174.5 53.5q-131 0 -218 -89.5t-87 -220.5q0 -62 20 -118q31 -86 111.5 -140
t172.5 -54q91 0 172.5 53.5t112.5 136.5q21 56 21 116zM612 168h-112l-78 169h-50v-169h-100v412h162q176 0 176 -118q0 -89 -90 -110zM507 456q0 61 -90 61h-45v-119h50q85 0 85 58z" />
    <glyph glyph-name="degree" unicode="&#xb0;" horiz-adv-x="364" 
d="M344 582q0 -66 -48 -109.5t-114 -43.5q-67 0 -114 43t-47 110q0 65 48 108.5t114 43.5q65 0 113 -43.5t48 -108.5zM275 582q0 41 -25.5 64.5t-66.5 23.5q-42 0 -67.5 -23t-25.5 -65q0 -89 93 -89q41 0 66.5 24t25.5 65z" />
    <glyph glyph-name="plusminus" unicode="&#xb1;" horiz-adv-x="720" 
d="M655 350h-250v-163h-90v163h-250v99h250v165h90v-165h250v-99zM655 -1h-590v99h590v-99z" />
    <glyph glyph-name="paragraph" unicode="&#xb6;" horiz-adv-x="720" 
d="M550 686h-58v-686h-52v686h-108v-686h-52v393q-85 3 -135 45q-55 47 -55 129q0 84 53 131q51 44 136 44h271v-56z" />
    <glyph glyph-name="guillemotright" unicode="&#xbb;" horiz-adv-x="457" 
d="M417 307l-72 -245h-112l70 245l-70 240h112zM212 307l-70 -245h-113l71 245l-71 240h113z" />
    <glyph glyph-name="mu" unicode="&#xb5;" horiz-adv-x="720" 
d="M615 548l-89 -548h-80l-5 93q-55 -109 -117 -109q-66 0 -109 90l-45 -294h-107l124 768h108l-35 -219q-13 -81 -13 -134q0 -93 90 -93q64 0 96 66q18 38 32 122l43 258h107z" />
    <glyph glyph-name="mu" unicode="&#x3bc;" horiz-adv-x="720" 
d="M615 548l-89 -548h-80l-5 93q-55 -109 -117 -109q-66 0 -109 90l-45 -294h-107l124 768h108l-35 -219q-13 -81 -13 -134q0 -93 90 -93q64 0 96 66q18 38 32 122l43 258h107z" />
    <glyph glyph-name="afii10023" unicode="&#x401;" horiz-adv-x="426" 
d="M343 754h-88v100h88v-100zM183 754h-87v100h87v-100zM390 0h-333v702h324v-132h-177v-123h186v-126h-186v-189h186v-132z" />
    <glyph glyph-name="afii10017" unicode="&#x410;" horiz-adv-x="498" 
d="M459 0h-150v135h-120v-135h-150v137q0 385 141 565h137q142 -188 142 -565v-137zM309 252q0 176 -60 342q-60 -166 -60 -342h120z" />
    <glyph glyph-name="afii10018" unicode="&#x411;" horiz-adv-x="522" 
d="M483 225q0 -126 -38 -172q-43 -53 -166 -53h-222v702h390v-132h-243v-120q39 6 79 6q110 0 158 -62q42 -55 42 -169zM333 225q0 51 -10 72q-15 33 -59 33q-30 0 -60 -5v-193h39q51 0 70.5 21t19.5 72z" />
    <glyph glyph-name="afii10019" unicode="&#x412;" horiz-adv-x="527" 
d="M482 204q0 -116 -43.5 -160t-159.5 -44h-222v702h215q112 0 153 -30q48 -37 48 -144q0 -89 -72 -138q49 -34 67 -81q14 -38 14 -105zM321 514q0 60 -56 60h-61v-134h34q83 0 83 74zM330 216q0 107 -76 107h-50v-191h39q51 0 69 16.5t18 67.5z" />
    <glyph glyph-name="afii10020" unicode="&#x413;" horiz-adv-x="390" 
d="M363 568h-159v-568h-147v702h306v-134z" />
    <glyph glyph-name="afii10021" unicode="&#x414;" horiz-adv-x="543" 
d="M537 -120h-132v120h-273v-120h-132v249h54q0 120 10 210q14 126 56 208q50 96 147 155h207v-573h63v-249zM324 129v447q-33 -29 -56 -63q-64 -95 -64 -384h120z" />
    <glyph glyph-name="afii10022" unicode="&#x415;" horiz-adv-x="426" 
d="M390 0h-333v702h324v-132h-177v-123h186v-126h-186v-189h186v-132z" />
    <glyph glyph-name="afii10024" unicode="&#x416;" horiz-adv-x="768" 
d="M729 682q0 -160 -120 -282q74 -76 100 -187q19 -77 19 -213h-149q0 112 -8 168q-14 93 -57 156q-34 -22 -58 -33v-291h-144v291q-24 11 -58 33q-43 -63 -57 -156q-8 -56 -8 -168h-149v47q0 230 119 353q-120 122 -120 282v10q1 7 1 10h149q0 -203 123 -298v298h144v-298
q123 95 123 298h149q0 -3 1 -10v-10z" />
    <glyph glyph-name="afii10025" unicode="&#x417;" horiz-adv-x="513" 
d="M468 204q0 -121 -47 -167t-169 -46q-213 0 -213 195q0 47 5 75h145q0 -106 13 -122t50 -16q35 0 49 15.5t14 50.5v58q0 53 -37 64q-12 4 -83 4v126q66 0 81 6q33 13 33 66q0 36 -9 49q-11 17 -48 17q-43 0 -53 -26q-4 -11 -4 -65h-140q-4 34 -4 44q0 99 52 141
q47 38 149 38q109 0 154 -36q50 -41 50 -147q0 -89 -72 -138q50 -35 68 -81q16 -38 16 -105z" />
    <glyph glyph-name="afii10026" unicode="&#x418;" horiz-adv-x="540" 
d="M483 0h-150v236q-51 -129 -136 -236h-140v702h150v-513q81 106 108 245q18 94 18 268h150v-702z" />
    <glyph glyph-name="afii10027" unicode="&#x419;" horiz-adv-x="540" 
d="M401 835q-21 -106 -131 -106t-131 106l65 17q6 -50 44 -58q10 -2 22 -2q39 0 51.5 20.5t14.5 39.5zM483 0h-150v236q-51 -129 -136 -236h-140v702h150v-513q81 106 108 245q18 94 18 268h150v-702z" />
    <glyph glyph-name="afii10028" unicode="&#x41a;" horiz-adv-x="519" 
d="M477 682q0 -160 -120 -282q74 -76 100 -187q19 -77 19 -213h-149q0 112 -8 168q-14 93 -57 156q-34 -22 -58 -33v-291h-147v702h147v-298q123 95 123 298h149q0 -3 1 -10v-10z" />
    <glyph glyph-name="afii10029" unicode="&#x41b;" horiz-adv-x="525" 
d="M468 0h-150v576q-33 -29 -56 -64q-48 -73 -60 -249q-4 -58 -4 -263h-150v116q0 163 16 261q25 154 95 239q41 49 102 86h207v-702z" />
    <glyph glyph-name="afii10030" unicode="&#x41c;" horiz-adv-x="798" 
d="M741 0h-150v576q-73 -77 -99 -162q-21 -69 -21 -189v-225h-144v225q0 120 -21 189q-26 85 -99 162v-576h-150v702h207q98 -87 135 -193q37 106 135 193h207v-702z" />
    <glyph glyph-name="afii10031" unicode="&#x41d;" horiz-adv-x="531" 
d="M474 0h-150v321h-117v-321h-150v702h150v-255h117v255h150v-702z" />
    <glyph glyph-name="afii10032" unicode="&#x41e;" horiz-adv-x="519" 
d="M472 227q0 -126 -43 -178q-47 -58 -170 -58q-122 0 -170 59q-42 52 -42 177v248q0 125 42 178q48 58 170 58q123 0 170 -58q43 -52 43 -178v-248zM318 191v321q0 36 -10 50q-13 17 -49 17q-34 0 -47 -14t-13 -48v-332q0 -34 13 -48t47 -14q38 0 50 17q9 14 9 51z" />
    <glyph glyph-name="afii10033" unicode="&#x41f;" horiz-adv-x="531" 
d="M474 0h-150v576h-117v-576h-150v702h417v-702z" />
    <glyph glyph-name="afii10034" unicode="&#x420;" horiz-adv-x="516" 
d="M483 449q0 -259 -200 -259q-40 0 -79 6v-196h-147v702h196q128 0 181 -64q49 -58 49 -189zM333 447q0 62 -14 88q-20 35 -76 35h-39v-249q30 -5 60 -5q47 0 61 46q8 24 8 85z" />
    <glyph glyph-name="afii10035" unicode="&#x421;" horiz-adv-x="511" 
d="M472 227q0 -126 -43 -178q-47 -58 -170 -58q-122 0 -170 59q-42 52 -42 177v248q0 126 42 177q47 58 170 58q142 0 184 -77q29 -53 29 -208h-154v87q0 36 -10 50q-13 16 -49 16q-34 0 -47 -13.5t-13 -47.5v-332q0 -34 13 -48t47 -14q38 0 50 17q9 14 9 51v120h154v-84z
" />
    <glyph glyph-name="afii10036" unicode="&#x422;" horiz-adv-x="401" 
d="M381 574h-106v-574h-151v574h-105v128h362v-128z" />
    <glyph glyph-name="afii10037" unicode="&#x423;" horiz-adv-x="498" 
d="M459 558q0 -177 -27 -294q-35 -156 -126 -264h-267v132h78q-78 169 -78 426v144h150q0 -213 1 -235q5 -149 31 -232q11 -37 28 -72q17 35 29 72q25 83 30 232q1 22 1 235h150v-144z" />
    <glyph glyph-name="afii10038" unicode="&#x424;" horiz-adv-x="777" 
d="M741 363q0 -255 -200 -255q-42 0 -79 12v-120h-147v120q-37 -12 -79 -12q-200 0 -200 255q0 249 219 249h60v90h147v-90h60q219 0 219 -249zM591 363q0 64 -13 86q-18 31 -77 31h-39v-236q28 -10 60 -10q45 0 60 46q9 26 9 83zM315 244v236h-39q-58 0 -77 -31
q-13 -23 -13 -86q0 -57 9 -83q15 -46 60 -46q34 0 60 10z" />
    <glyph glyph-name="afii10039" unicode="&#x425;" horiz-adv-x="510" 
d="M468 0h-150q0 124 -10 186q-12 79 -52 180q41 76 53 164q9 58 9 172h150v-21q0 -154 -67 -291q67 -152 67 -370v-20zM254 366q-40 -101 -52 -180q-10 -62 -10 -186h-150v20q0 218 67 370q-21 44 -44 115.5t-23 196.5h150q0 -114 9 -172q12 -88 53 -164z" />
    <glyph glyph-name="afii10040" unicode="&#x426;" horiz-adv-x="540" 
d="M540 -120h-132v120h-348v702h150v-573h117v573h150v-573h63v-249z" />
    <glyph glyph-name="afii10041" unicode="&#x427;" horiz-adv-x="519" 
d="M462 0h-147v253q-39 -6 -79 -6q-200 0 -200 259v196h150v-198q0 -61 8 -85q14 -46 61 -46q30 0 60 5v324h147v-702z" />
    <glyph glyph-name="afii10042" unicode="&#x428;" horiz-adv-x="762" 
d="M702 0h-642v702h150v-573h99v573h144v-573h99v573h150v-702z" />
    <glyph glyph-name="afii10043" unicode="&#x429;" horiz-adv-x="765" 
d="M765 -120h-132v120h-573v702h150v-573h99v573h144v-573h99v573h150v-573h63v-249z" />
    <glyph glyph-name="afii10044" unicode="&#x42a;" horiz-adv-x="562" 
d="M525 225q0 -126 -38 -172q-43 -53 -166 -53h-222v574h-90v128h237v-252q39 6 79 6q110 0 158 -62q42 -55 42 -169zM375 225q0 51 -10 72q-15 33 -59 33q-30 0 -60 -5v-193h39q51 0 70.5 21t19.5 72z" />
    <glyph glyph-name="afii10045" unicode="&#x42b;" horiz-adv-x="762" 
d="M702 0h-150v702h150v-702zM480 225q0 -126 -38 -173q-43 -52 -166 -52h-216v702h147v-252q34 6 73 6q110 0 158 -62q42 -55 42 -169zM330 225q0 51 -10 72q-15 33 -59 33q-27 0 -54 -5v-193h33q50 0 70 21t20 72z" />
    <glyph glyph-name="afii10046" unicode="&#x42c;" horiz-adv-x="522" 
d="M483 225q0 -126 -38 -172q-43 -53 -166 -53h-222v702h147v-252q39 6 79 6q110 0 158 -62q42 -55 42 -169zM333 225q0 51 -10 72q-15 33 -59 33q-30 0 -60 -5v-193h39q51 0 70.5 21t19.5 72z" />
    <glyph glyph-name="afii10047" unicode="&#x42d;" horiz-adv-x="516" 
d="M468 227q0 -125 -43 -177q-48 -59 -170 -59q-136 0 -180 72q-33 53 -33 198h150v-72q0 -38 13 -52t50 -14q35 0 49 15.5t14 50.5v126h-126v126h126v72q0 37 -13 51.5t-50 14.5q-45 0 -57 -25q-6 -13 -6 -66h-150q0 125 44.5 174t168.5 49t168.5 -49t44.5 -174v-261z" />
    <glyph glyph-name="afii10048" unicode="&#x42e;" horiz-adv-x="741" 
d="M702 227q0 -124 -39 -175q-46 -61 -165 -61q-105 0 -153 47q-39 39 -48 120q-3 29 -3 163h-90v-321h-147v702h147v-264h90q0 145 29 197q42 76 175 76q119 0 165 -60q39 -52 39 -176v-248zM555 191v321q0 35 -9 49q-12 18 -47 18q-34 0 -46 -14t-12 -48v-332
q0 -34 12.5 -48t45.5 -14q35 0 47 17q9 13 9 51z" />
    <glyph glyph-name="afii10049" unicode="&#x42f;" horiz-adv-x="531" 
d="M471 0h-150v321q-30 -5 -60 -5q-43 -81 -59 -153q-16 -67 -16 -163h-150q0 174 95 343q-85 59 -85 160q0 199 223 199h202v-702zM327 444v134h-52q-79 0 -79 -68q0 -40 16.5 -57.5t56.5 -17.5q29 0 58 9z" />
    <glyph glyph-name="afii10065" unicode="&#x430;" horiz-adv-x="468" 
d="M420 0h-130v59q-71 -69 -122 -69q-129 0 -129 143v91q0 49 13 80q23 53 117 90q37 14 112 41v16q0 32 -10.5 45t-42.5 13q-38 0 -48 -24q-5 -12 -5 -58h-122v40q0 85 49 121q43 32 131 32q97 0 141 -38q46 -41 46 -137v-445zM281 166v166q-48 -24 -67 -39
q-33 -28 -38 -65q-1 -11 -1 -25v-37q0 -34 8 -47q12 -17 45 -17t44 16q9 12 9 48z" />
    <glyph glyph-name="afii10066" unicode="&#x431;" horiz-adv-x="480" 
d="M437 168q0 -103 -47 -142q-42 -35 -147 -35t-148 36q-47 39 -47 141v326q0 92 16 137q24 73 96 86q38 7 97 7q80 0 138 21l42 -82q-59 -30 -113 -33l-90 -6q-51 -11 -51 -60v-28q36 21 94 21q90 0 127 -44q33 -40 33 -132v-213zM296 159v236q0 32 -11 44.5t-42 12.5
q-32 0 -43 -12t-11 -45v-236q0 -33 11 -45t43 -12q31 0 42 12.5t11 44.5z" />
    <glyph glyph-name="afii10067" unicode="&#x432;" horiz-adv-x="461" 
d="M434 178q0 -97 -42.5 -137.5t-140.5 -40.5h-197v612h191q98 0 133 -26q42 -32 42 -126q0 -79 -62 -120q44 -31 61 -70q15 -34 15 -92zM288 448q0 52 -49 52h-53v-116h29q73 0 73 64zM296 188q0 94 -67 94h-43v-167h34q44 0 60 14.5t16 58.5z" />
    <glyph glyph-name="afii10068" unicode="&#x433;" horiz-adv-x="348" 
d="M330 495h-138v-495h-138v612h276v-117z" />
    <glyph glyph-name="afii10069" unicode="&#x434;" horiz-adv-x="488" 
d="M482 -90h-120v90h-242v-90h-120v204h52q0 138 14 222q22 129 83 202q35 42 89 74h184v-498h60v-204zM287 114v388q-29 -26 -48 -55q-55 -81 -55 -333h103z" />
    <glyph glyph-name="afii10070" unicode="&#x435;" horiz-adv-x="473" 
d="M431 187q0 -110 -42.5 -153t-151.5 -43q-110 0 -152.5 43t-42.5 153v237q0 109 43 152.5t152 43.5t151.5 -43t42.5 -153v-138h-250v-120q0 -34 10.5 -49t45.5 -15q33 0 45 17q10 13 10 47v58h139v-37zM292 394v47q0 35 -9 49q-12 19 -46 19q-35 0 -47 -19q-9 -13 -9 -49
v-47h111z" />
    <glyph glyph-name="afii10072" unicode="&#x436;" horiz-adv-x="705" 
d="M667 591q0 -139 -105 -242q65 -67 88 -163q16 -67 16 -186h-139q0 96 -7 146q-13 84 -50 136q-23 -15 -50 -28v-254h-135v254q-27 13 -50 28q-37 -52 -50 -136q-7 -50 -7 -146h-139v41q0 200 104 308q-105 103 -105 242v10q1 8 1 11h139q0 -178 107 -260v260h135v-260
q107 82 107 260h139q0 -3 1 -11v-10z" />
    <glyph glyph-name="afii10073" unicode="&#x437;" horiz-adv-x="456" 
d="M416 178q0 -104 -44 -145t-149 -41q-186 0 -186 170q0 20 4 66h127v-37q0 -46 6 -60q11 -24 49 -24q55 0 55 58v50q0 46 -32 56q-12 4 -73 4v109q58 0 71 5q28 11 28 58q0 32 -9 45t-40 13q-38 0 -46 -23q-4 -10 -4 -57h-122q-4 30 -4 39q0 87 46 123q41 33 130 33
q95 0 135 -32q46 -36 46 -128q0 -76 -66 -120q78 -43 78 -162z" />
    <glyph glyph-name="afii10074" unicode="&#x438;" horiz-adv-x="471" 
d="M432 0h-138v193q-52 -130 -126 -193h-126v612h138v-426q85 66 108 256q6 54 6 170h138v-612z" />
    <glyph glyph-name="afii10075" unicode="&#x439;" horiz-adv-x="471" 
d="M368 763q-21 -106 -131 -106t-131 106l65 17q6 -50 44 -58q10 -2 22 -2q39 0 51.5 20.5t14.5 39.5zM432 0h-138v193q-52 -130 -126 -193h-126v612h138v-426q85 66 108 256q6 54 6 170h138v-612z" />
    <glyph glyph-name="afii10076" unicode="&#x43a;" horiz-adv-x="481" 
d="M439 591q0 -139 -105 -242q65 -67 88 -163q16 -67 16 -186h-139q0 96 -7 146q-13 84 -50 136q-23 -15 -50 -28v-254h-138v612h138v-260q107 82 107 260h139q0 -3 1 -11v-10z" />
    <glyph glyph-name="afii10077" unicode="&#x43b;" horiz-adv-x="476" 
d="M422 0h-138v502q-29 -30 -49 -62q-41 -68 -52 -215q-3 -49 -3 -225h-138v92q0 184 30 289q44 151 163 231h187v-612z" />
    <glyph glyph-name="afii10078" unicode="&#x43c;" horiz-adv-x="704" 
d="M650 0h-132v502q-62 -66 -85 -154q-18 -67 -18 -177v-171h-126v171q0 110 -18 177q-23 88 -85 154v-502h-132v612h171q89 -78 127 -165q38 89 126 165h172v-612z" />
    <glyph glyph-name="afii10079" unicode="&#x43d;" horiz-adv-x="495" 
d="M441 0h-138v279h-111v-279h-138v612h138v-216h111v216h138v-612z" />
    <glyph glyph-name="afii10080" unicode="&#x43e;" horiz-adv-x="471" 
d="M430 187q0 -109 -42.5 -152.5t-151.5 -43.5q-110 0 -152.5 43t-42.5 153v237q0 109 43 152.5t152 43.5t151.5 -43.5t42.5 -152.5v-237zM289 172v267q0 33 -9 46q-12 18 -44 18q-33 0 -45 -17q-9 -13 -9 -47v-267q0 -34 9 -47q11 -17 45 -17q33 0 45 17q8 13 8 47z" />
    <glyph glyph-name="afii10081" unicode="&#x43f;" horiz-adv-x="492" 
d="M438 0h-138v495h-108v-495h-138v612h384v-612z" />
    <glyph glyph-name="afii10082" unicode="&#x440;" horiz-adv-x="481" 
d="M440 198q0 -107 -16 -144q-27 -63 -118 -63q-37 0 -65 18q-19 13 -49 47v-146h-139v702h129v-59q38 36 59 49q32 18 74 18q77 0 105 -60q20 -41 20 -128v-234zM298 166v279q0 33 -9 46q-11 18 -44 18t-43 -14.5t-10 -49.5v-279q0 -35 9 -48q11 -16 44 -16t45 17
q8 13 8 47z" />
    <glyph glyph-name="afii10083" unicode="&#x441;" horiz-adv-x="468" 
d="M431 187q0 -110 -42.5 -153t-151.5 -43q-110 0 -152.5 43t-42.5 153v237q0 109 43 152.5t152 43.5q133 0 170 -67q24 -44 24 -190h-141v82q0 33 -9 46q-11 18 -44 18t-45 -17q-9 -13 -9 -47v-279q0 -34 9 -47q11 -17 45 -17q33 0 45 17q8 13 8 47v82h141v-61z" />
    <glyph glyph-name="afii10084" unicode="&#x442;" horiz-adv-x="354" 
d="M345 495h-99v-495h-138v495h-99v117h336v-117z" />
    <glyph glyph-name="afii10085" unicode="&#x443;" horiz-adv-x="473" 
d="M429 391q0 -144 -32 -254q-35 -120 -115 -227h-238v90h106q-106 160 -106 391v221h139q0 -251 3 -294q8 -136 51 -282q42 145 50 282q3 43 3 294h139v-221z" />
    <glyph glyph-name="afii10086" unicode="&#x444;" horiz-adv-x="698" 
d="M659 201q0 -105 -15 -140q-26 -61 -115 -61q-36 0 -63 17q-18 12 -48 45v-152h-138v152q-30 -33 -48 -45q-27 -17 -63 -17q-89 0 -115 61q-15 35 -15 140v228q0 84 19 125q28 58 102 58q36 0 66 -16q19 -11 54 -41v147h138v-147q34 30 54 41q30 16 66 16q74 0 102 -58
q19 -41 19 -125v-228zM521 169v273q0 62 -50 62q-33 0 -43 -14.5t-10 -47.5v-273q0 -33 8 -45q11 -16 45 -16q31 0 42 17q8 12 8 44zM280 169v273q0 33 -10 47.5t-43 14.5q-50 0 -50 -62v-273q0 -32 8 -44q11 -17 42 -17q34 0 45 16q8 12 8 45z" />
    <glyph glyph-name="afii10087" unicode="&#x445;" horiz-adv-x="461" 
d="M423 0h-140q0 157 -51 330q-55 -174 -55 -330h-140q0 220 62 333q-62 138 -62 279h140q0 -143 55 -260q51 123 51 260h140q0 -135 -61 -278q61 -118 61 -334z" />
    <glyph glyph-name="afii10088" unicode="&#x446;" horiz-adv-x="489" 
d="M487 -90h-117v90h-316v612h138v-498h102v498h138v-498h55v-204z" />
    <glyph glyph-name="afii10089" unicode="&#x447;" horiz-adv-x="468" 
d="M414 0h-138v200q-34 -6 -67 -6q-176 0 -176 226v192h135v-195q0 -71 11.5 -94t45.5 -23q24 0 51 9v303h138v-612z" />
    <glyph glyph-name="afii10090" unicode="&#x448;" horiz-adv-x="684" 
d="M630 0h-576v612h138v-498h87v498h126v-498h87v498h138v-612z" />
    <glyph glyph-name="afii10091" unicode="&#x449;" horiz-adv-x="687" 
d="M685 -90h-117v90h-514v612h138v-498h87v498h126v-498h87v498h138v-498h55v-204z" />
    <glyph glyph-name="afii10092" unicode="&#x44a;" horiz-adv-x="505" 
d="M478 196q0 -104 -40 -148q-43 -48 -145 -48h-203v498h-81v114h219v-223q38 8 69 8q97 0 141 -53q40 -48 40 -148zM340 196q0 45 -8 63q-13 27 -52 27q-25 0 -52 -5v-167h34q44 0 61 18.5t17 63.5z" />
    <glyph glyph-name="afii10093" unicode="&#x44b;" horiz-adv-x="664" 
d="M616 0h-135v612h135v-612zM418 196q0 -110 -33 -150q-37 -46 -144 -46h-196v612h135v-223q40 8 64 8q97 0 138 -54q36 -47 36 -147zM288 196q0 44 -9 62q-13 28 -51 28q-25 0 -48 -5v-167h29q44 0 61.5 18.5t17.5 63.5z" />
    <glyph glyph-name="afii10094" unicode="&#x44c;" horiz-adv-x="469" 
d="M442 196q0 -104 -40 -148q-43 -48 -145 -48h-203v612h138v-223q40 8 69 8q97 0 141 -53q40 -48 40 -148zM304 196q0 45 -8 63q-13 27 -52 27q-25 0 -52 -5v-167h34q44 0 61 18.5t17 63.5z" />
    <glyph glyph-name="afii10095" unicode="&#x44d;" horiz-adv-x="462" 
d="M421 198q0 -108 -43 -157t-150 -49q-118 0 -159 62q-31 49 -31 174h135v-63q0 -33 11.5 -45.5t43.5 -12.5q31 0 43 13.5t12 44.5v110h-110v109h110v63q0 32 -11.5 45t-43.5 13q-39 0 -49 -22q-6 -12 -6 -58h-135q0 110 40.5 152.5t149.5 42.5t151 -42.5t42 -152.5v-227z
" />
    <glyph glyph-name="afii10096" unicode="&#x44e;" horiz-adv-x="681" 
d="M640 198q0 -106 -40 -154q-44 -52 -148 -52q-92 0 -135 40q-36 34 -46 105q-4 33 -4 143h-78v-280h-135v612h135v-230h78q0 125 29 173q40 65 156 65q104 0 148 -52q40 -47 40 -154v-216zM502 166v280q0 31 -8 43q-10 16 -41 16q-29 0 -40 -12t-11 -42v-290q0 -54 51 -54
q31 0 41 15q8 12 8 44z" />
    <glyph glyph-name="afii10097" unicode="&#x44f;" horiz-adv-x="463" 
d="M420 0h-140v280q-27 -5 -52 -5q-66 -119 -66 -275h-138q0 159 80 301q-32 23 -51.5 60.5t-19.5 76.5q0 174 194 174h193v-612zM285 387v114h-45q-69 0 -69 -56q0 -36 14 -51t49 -15q19 0 51 8z" />
    <glyph glyph-name="afii10071" unicode="&#x451;" horiz-adv-x="473" 
d="M361 664h-88v99h88v-99zM200 664h-87v99h87v-99zM431 187q0 -110 -42.5 -153t-151.5 -43q-110 0 -152.5 43t-42.5 153v237q0 109 43 152.5t152 43.5t151.5 -43t42.5 -153v-138h-250v-120q0 -34 10.5 -49t45.5 -15q33 0 45 17q10 13 10 47v58h139v-37zM292 394v47
q0 35 -9 49q-12 19 -46 19q-35 0 -47 -19q-9 -13 -9 -49v-47h111z" />
    <glyph glyph-name="endash" unicode="&#x2013;" horiz-adv-x="512" 
d="M496 265h-480v96h480v-96z" />
    <glyph glyph-name="emdash" unicode="&#x2014;" horiz-adv-x="1024" 
d="M962 265h-900v96h900v-96z" />
    <glyph glyph-name="quoteleft" unicode="&#x2018;" horiz-adv-x="223" 
d="M171 480h-120v155l87 68l19 -14l-46 -59h60v-150z" />
    <glyph glyph-name="quoteright" unicode="&#x2019;" horiz-adv-x="223" 
d="M171 547l-87 -69l-18 14l46 60h-61v150h120v-155z" />
    <glyph glyph-name="quotesinglbase" unicode="&#x201a;" horiz-adv-x="223" 
d="M171 -5l-87 -68l-18 14l46 59h-61v150h120v-155z" />
    <glyph glyph-name="quotedblleft" unicode="&#x201c;" horiz-adv-x="411" 
d="M360 480h-120v155l87 68l19 -14l-48 -59h62v-150zM171 480h-120v155l87 68l19 -14l-46 -59h60v-150z" />
    <glyph glyph-name="quotedblright" unicode="&#x201d;" horiz-adv-x="411" 
d="M360 547l-87 -69l-20 14l47 60h-60v150h120v-155zM171 547l-87 -69l-18 14l46 60h-61v150h120v-155z" />
    <glyph glyph-name="quotedblbase" unicode="&#x201e;" horiz-adv-x="411" 
d="M360 -5l-87 -68l-20 14l47 59h-60v150h120v-155zM171 -5l-87 -68l-18 14l46 59h-61v150h120v-155z" />
    <glyph glyph-name="dagger" unicode="&#x2020;" 
d="M446 431h-148v-503h-102v503h-148v99h148v172h102v-172h148v-99z" />
    <glyph glyph-name="bullet" unicode="&#x2022;" horiz-adv-x="677" 
d="M496 382q0 -63 -47.5 -106t-111.5 -43t-110.5 43t-46.5 106q0 64 47 106t111 42q63 0 110.5 -42.5t47.5 -105.5z" />
    <glyph glyph-name="ellipsis" unicode="&#x2026;" horiz-adv-x="1168" 
d="M1056 0h-142v158h142v-158zM656 0h-142v158h142v-158zM255 0h-142v158h142v-158z" />
    <glyph glyph-name="perthousand" unicode="&#x2030;" horiz-adv-x="752" 
d="M726 84q0 -93 -92 -93q-90 0 -90 93v135q0 94 90 94q92 0 92 -94v-135zM209 468q0 -95 -93 -95q-90 0 -90 95v135q0 93 90 93q93 0 93 -93v-135zM491 687l-428 -687h-59l429 687h58zM471 84q0 -93 -92 -93q-90 0 -90 93v135q0 94 90 94q92 0 92 -94v-135zM674 77v150
q0 29 -40 29q-39 0 -39 -29v-150q0 -30 39 -30q40 0 40 30zM156 461v149q0 30 -40 30q-38 0 -38 -30v-149q0 -31 38 -31q40 0 40 31zM419 77v150q0 29 -40 29q-39 0 -39 -29v-150q0 -30 40 -30q39 0 39 30z" />
    <glyph glyph-name="guilsinglleft" unicode="&#x2039;" horiz-adv-x="253" 
d="M224 64h-113l-70 239l70 245h113l-70 -245z" />
    <glyph glyph-name="guilsinglright" unicode="&#x203a;" horiz-adv-x="253" 
d="M212 308l-70 -244h-113l71 244l-71 240h113z" />
    <glyph glyph-name="afii61352" unicode="&#x2116;" horiz-adv-x="840" 
d="M794 266q0 -116 -122 -116t-122 116v167q0 115 122 115t122 -115v-167zM794 0h-244v90h244v-90zM476 0h-149v137q0 176 -119 376v-513h-151v702h140q49 -65 130 -251v251h149v-702zM714 262v176q0 22 -9.5 28.5t-32.5 6.5q-42 0 -42 -35v-176q0 -37 43 -37q41 0 41 37z
" />
    <glyph glyph-name="trademark" unicode="&#x2122;" horiz-adv-x="853" 
d="M723 458h-67v204l-78 -204h-30l-79 204v-204h-67v273h98l63 -166l61 166h99v-273zM346 675h-84v-217h-74v217h-84v56h242v-56z" />
    <glyph glyph-name="periodcentered" unicode="&#xb7;" horiz-adv-x="234" 
d="M204 348q0 -37 -25.5 -62.5t-62.5 -25.5q-36 0 -62 26t-26 62q0 37 25.5 62.5t62.5 25.5t62.5 -25.5t25.5 -62.5z" />
    <glyph glyph-name="periodcentered" unicode="&#x2219;" horiz-adv-x="234" 
d="M204 348q0 -37 -25.5 -62.5t-62.5 -25.5q-36 0 -62 26t-26 62q0 37 25.5 62.5t62.5 25.5t62.5 -25.5t25.5 -62.5z" />
    <glyph glyph-name="u0000" horiz-adv-x="1080" 
 />
    <glyph glyph-name="u0001" horiz-adv-x="1000" 
 />
    <glyph glyph-name="u0002" horiz-adv-x="1000" 
 />
    </font>
</defs>
</svg>
